<svg xmlns="http://www.w3.org/2000/svg" width="200" height="200" viewBox="0 0 24 24" fill="none">
  <rect width="24" height="24" rx="4" fill="#0f1724" />
  <g transform="translate(2,2) scale(0.8)">
    <path d="M5 11c0 1.657 1.343 3 3 3h1v1a1 1 0 0 0 1 1h4a1 1 0 0 0 1-1v-1h1c1.657 0 3-1.343 3-3V9a5 5 0 0 0-5-5H8A5 5 0 0 0 3 9v2z" fill="#ffcc00" opacity="0.95"/>
    <circle cx="8" cy="12" r="1" fill="#0b1020"/>
    <circle cx="16" cy="12" r="1" fill="#0b1020"/>
    <path d="M6 6l2 2" stroke="#ff4e00" stroke-width="0.8" stroke-linecap="round"/>
    <path d="M18 6l-2 2" stroke="#ff4e00" stroke-width="0.8" stroke-linecap="round"/>
  </g>
</svg>